<svg width="80" height="39" viewBox="0 0 80 39" fill="none" xmlns="http://www.w3.org/2000/svg">
<rect width="80" height="39" rx="5" fill="#0B2557"/>
<path fill-rule="evenodd" clip-rule="evenodd" d="M49.2044 15.808C49.2044 19.2912 48.4084 21.8872 46.8172 23.5788C45.2256 25.27 42.7668 26.1156 39.452 26.1156C36.3548 26.1156 34.0052 25.27 32.4032 23.5788C30.8004 21.8876 30 19.3368 30 15.9268V4.486C30.0003 4.3572 30.0516 4.23377 30.1427 4.1427C30.2338 4.05162 30.3572 4.00032 30.486 4H36.102C36.2307 4.00053 36.354 4.0519 36.4451 4.14293C36.5361 4.23396 36.5875 4.35727 36.588 4.486V16.1768C36.588 17.5692 36.8456 18.6408 37.37 19.3968C37.7625 19.9172 38.3221 20.2867 38.9549 20.4431C39.5877 20.5995 40.2551 20.5333 40.8448 20.2556C41.2357 20.0717 41.5795 19.8009 41.85 19.464C42.3628 18.7548 42.618 17.7096 42.6164 16.328V14.1388H49.2044V15.808Z" fill="white"/>
<path fill-rule="evenodd" clip-rule="evenodd" d="M48.6956 11.86H42.6172V3.5092C42.6175 3.37425 42.6713 3.24492 42.7667 3.14949C42.8621 3.05407 42.9914 3.00032 43.1264 3H44.0364C44.0374 4.36938 44.5823 5.68228 45.5512 6.65C46.5202 7.61803 47.8339 8.16184 49.2036 8.162H49.2052V11.86H48.6956Z" fill="white"/>
<path fill-rule="evenodd" clip-rule="evenodd" d="M45.332 3H48.6972C48.8321 3.00042 48.9614 3.05421 49.0568 3.14961C49.1522 3.24501 49.206 3.37428 49.2064 3.5092V6.8772C48.1791 6.87699 47.194 6.46889 46.4675 5.7426C45.741 5.01632 45.3326 4.03128 45.332 3.004V3Z" fill="#F4821F"/>
<path fill-rule="evenodd" clip-rule="evenodd" d="M25.7801 33.4103C26.9795 33.4103 27.5583 32.7431 27.5583 31.7631V29.401H26.7002V31.7392C26.7002 31.9844 26.6028 32.2196 26.4294 32.393C26.256 32.5663 26.0208 32.6638 25.7756 32.6638C25.5304 32.6638 25.2952 32.5663 25.1218 32.393C24.9484 32.2196 24.851 31.9844 24.851 31.7392V29.401H24V31.7702C24 32.738 24.5787 33.4115 25.7782 33.4115L25.7801 33.4103ZM32.7379 33.3393V32.6018H30.8359L32.6973 30.0726V29.399H29.7371V30.1372H31.5985L29.7371 32.6592V33.3367L32.7379 33.3393ZM36.7479 33.4103C37.0854 33.4179 37.4184 33.3314 37.7095 33.1603C38.0006 32.9893 38.2382 32.7404 38.3957 32.4418L37.6731 32.0934C37.5851 32.2642 37.4523 32.4078 37.2888 32.5088C37.1253 32.6097 36.9374 32.6642 36.7453 32.6663C36.4978 32.6538 36.2591 32.5706 36.0574 32.4266C35.8558 32.2825 35.6997 32.0836 35.6077 31.8535C35.5157 31.6234 35.4916 31.3718 35.5382 31.1284C35.5849 30.885 35.7004 30.6601 35.871 30.4804C36.1001 30.2397 36.413 30.0959 36.7453 30.0797C36.9371 30.0831 37.1244 30.138 37.2877 30.2387C37.4509 30.3393 37.584 30.4821 37.6731 30.652L38.3957 30.2972C38.2384 29.9989 38.0006 29.7507 37.7093 29.5807C37.418 29.4108 37.085 29.326 36.7479 29.3358C36.4065 29.3259 36.0682 29.4018 35.7638 29.5566C35.4595 29.7114 35.1989 29.9402 35.0059 30.2219C34.8129 30.5036 34.6938 30.8293 34.6594 31.169C34.625 31.5087 34.6765 31.8516 34.809 32.1663C34.969 32.5451 35.2398 32.8666 35.5858 33.0886C35.9318 33.3106 36.3369 33.4227 36.7479 33.4103ZM44.0773 33.3393L42.5592 29.401H41.5075L39.9829 33.3393H40.9404L41.1881 32.6721H42.8786L43.1205 33.3393H44.0773ZM42.6476 31.934H41.4185L42.0333 30.2391L42.6476 31.934ZM49.7409 34.3277L48.2957 31.8405C48.5539 31.7782 48.7819 31.6268 48.9396 31.4129C49.0973 31.1991 49.1745 30.9365 49.1576 30.6714C49.1643 30.4983 49.1342 30.3258 49.0694 30.1651C49.0045 30.0045 48.9064 29.8595 48.7814 29.7395C48.6565 29.6196 48.5075 29.5274 48.3444 29.4692C48.1813 29.4109 48.0077 29.3879 47.835 29.4016H45.9897V33.3406H46.8285V31.9405H47.4434L48.777 34.3271L49.7403 34.3277H49.7409ZM47.7105 31.203H46.8304V30.1404H47.7079C47.7828 30.1317 47.8587 30.139 47.9307 30.1617C48.0026 30.1845 48.0689 30.2222 48.1252 30.2723C48.1815 30.3225 48.2266 30.384 48.2574 30.4529C48.2883 30.5217 48.3043 30.5963 48.3043 30.6717C48.3043 30.7471 48.2883 30.8217 48.2574 30.8905C48.2266 30.9594 48.1815 31.0209 48.1252 31.0711C48.0689 31.1212 48.0026 31.1589 47.9307 31.1817C47.8587 31.2044 47.7828 31.2117 47.7079 31.203H47.7105ZM52.8895 33.3406C54.1244 33.3406 54.9812 32.5612 54.9812 31.374C54.9812 30.1868 54.1225 29.4016 52.8895 29.4016H51.3358V33.3406H52.8895ZM52.8895 32.6025H52.1746V30.1404H52.8895C53.0546 30.1283 53.2205 30.1519 53.3757 30.2096C53.5309 30.2673 53.6719 30.3577 53.7891 30.4748C53.9062 30.5918 53.9968 30.7327 54.0547 30.8879C54.1126 31.043 54.1363 31.2088 54.1244 31.374C54.1316 31.538 54.1045 31.7017 54.0447 31.8546C53.985 32.0075 53.8939 32.1462 53.7774 32.2618C53.6609 32.3774 53.5215 32.4674 53.3681 32.5259C53.2147 32.5845 53.0508 32.6103 52.8869 32.6018L52.8895 32.6025ZM56 29.3261V29.3365C56 29.4814 55.957 29.6231 55.8765 29.7436C55.796 29.8641 55.6816 29.9581 55.5477 30.0136C55.4138 30.069 55.2665 30.0836 55.1243 30.0554C54.9821 30.0271 54.8515 29.9574 54.749 29.855C54.6465 29.7525 54.5766 29.622 54.5483 29.4798C54.5199 29.3377 54.5343 29.1904 54.5897 29.0564C54.6451 28.9225 54.7389 28.808 54.8594 28.7274C54.9798 28.6467 55.1215 28.6036 55.2664 28.6035H55.9994V29.3261H56Z" fill="white"/>
</svg>
