<svg width="80" height="39" viewBox="0 0 80 39" fill="none" xmlns="http://www.w3.org/2000/svg">
<rect width="80" height="39" rx="5" fill="white"/>
<path fill-rule="evenodd" clip-rule="evenodd" d="M68.72 19.2399C68.9781 19.2399 69.1875 19.0441 69.1875 18.8026V17.5438C69.1875 17.3023 68.9781 17.1065 68.72 17.1065H67.696V15.8165C67.696 15.5234 67.3938 15.3132 67.0943 15.3978L65.6485 15.8052C65.4511 15.8609 65.3159 16.031 65.3159 16.2239V17.1065H64.7079C64.4498 17.1065 64.2406 17.3023 64.2406 17.5438V18.8026C64.2406 19.0441 64.4498 19.2399 64.7079 19.2399H65.3159V21.2391C65.3159 22.3036 65.6027 23.0415 66.1763 23.453C66.7015 23.8155 67.5675 23.9495 68.7749 23.8549C69.0104 23.8365 69.1875 23.6489 69.1875 23.4277V22.264C69.1875 22.0133 68.9622 21.8171 68.6945 21.813C68.4098 21.8086 68.1919 21.7828 68.0402 21.7356C67.8109 21.664 67.696 21.4807 67.696 21.1855V19.2399H68.72ZM48.3049 17.6701C47.8269 17.1691 47.1722 16.9187 46.3405 16.9187C45.4516 16.9187 44.7586 17.2049 44.2615 17.7774C43.8601 17.2049 43.2483 16.9187 42.4262 16.9187C41.5755 16.9187 40.9302 17.1915 40.4905 17.7372V17.5438C40.4905 17.3023 40.2813 17.1065 40.0233 17.1065H38.5777C38.3196 17.1065 38.1104 17.3023 38.1104 17.5438V23.378C38.1104 23.6195 38.3196 23.8153 38.5777 23.8153H40.0233C40.2813 23.8153 40.4905 23.6195 40.4905 23.378V20.1523C40.4905 19.8035 40.5718 19.5306 40.7343 19.3338C40.9064 19.1281 41.1549 19.0253 41.4799 19.0253C42.0821 19.0253 42.3832 19.3383 42.3832 19.9645V23.378C42.3832 23.6195 42.5924 23.8153 42.8505 23.8153H44.2961C44.5541 23.8153 44.7633 23.6195 44.7633 23.378V20.1523C44.7633 19.8035 44.8446 19.5306 45.0071 19.3338C45.1792 19.1281 45.4277 19.0253 45.7527 19.0253C46.3453 19.0253 46.6416 19.3383 46.6416 19.9645V23.378C46.6416 23.6195 46.8508 23.8153 47.1089 23.8153H48.5688C48.8269 23.8153 49.0361 23.6195 49.0361 23.378V19.7095C49.0361 18.8418 48.7923 18.162 48.3049 17.6701ZM55.8349 17.1065C55.5769 17.1065 55.3677 17.3023 55.3677 17.5438V17.7237C54.8801 17.187 54.2015 16.9187 53.3316 16.9187C52.3758 16.9187 51.5728 17.2586 50.9228 17.9384C50.2824 18.6093 49.9622 19.4501 49.9622 20.4609C49.9622 21.4717 50.2824 22.317 50.9228 22.9968C51.5728 23.6677 52.3758 24.0031 53.3316 24.0031C54.2015 24.0031 54.8801 23.7348 55.3677 23.1981V23.378C55.3677 23.6195 55.5769 23.8153 55.8349 23.8153H57.2805C57.5385 23.8153 57.7478 23.6195 57.7478 23.378V17.5438C57.7478 17.3023 57.5385 17.1065 57.2805 17.1065H55.8349ZM53.8621 21.9234C53.4128 21.9234 53.0496 21.7892 52.7724 21.5209C52.4952 21.2526 52.3566 20.8992 52.3566 20.4609C52.3566 20.0226 52.4952 19.6693 52.7724 19.4009C53.0496 19.1326 53.4128 18.9984 53.8621 18.9984C54.3114 18.9984 54.6746 19.1326 54.9519 19.4009C55.229 19.6693 55.3677 20.0226 55.3677 20.4609C55.3677 20.8992 55.229 21.2526 54.9519 21.5209C54.6746 21.7892 54.3114 21.9234 53.8621 21.9234ZM61.5077 18.3543C61.6416 17.916 61.9092 17.5762 62.3107 17.3346C62.5829 17.1708 62.8772 17.0626 63.1935 17.0099C63.4476 16.9675 63.6585 17.1681 63.6585 17.4097V18.9294C63.6585 19.1981 63.3995 19.3979 63.1133 19.42C62.7774 19.4459 62.462 19.5469 62.1673 19.723C61.7276 19.9913 61.5077 20.4296 61.5077 21.0378V23.378C61.5077 23.6195 61.2985 23.8153 61.0404 23.8153H59.5949C59.3368 23.8153 59.1276 23.6195 59.1276 23.378V17.5438C59.1276 17.3023 59.3368 17.1065 59.5949 17.1065H61.0404C61.2985 17.1065 61.5077 17.3023 61.5077 17.5438V18.3543ZM26.8689 17.1066C26.6108 17.1066 26.4016 17.3023 26.4016 17.5438V17.7238C25.9141 17.1871 25.2354 16.9187 24.3656 16.9187C23.4097 16.9187 22.6068 17.2586 21.9568 17.9384C21.3163 18.6093 20.9961 19.4502 20.9961 20.461C20.9961 21.4717 21.3163 22.317 21.9568 22.9968C22.6068 23.6678 23.4097 24.0032 24.3656 24.0032C25.2354 24.0032 25.9141 23.7348 26.4016 23.1981V23.3781C26.4016 23.6196 26.6108 23.8153 26.8689 23.8153H28.3145C28.5725 23.8153 28.7817 23.6196 28.7817 23.3781V17.5438C28.7817 17.3023 28.5725 17.1066 28.3145 17.1066H26.8689ZM24.8961 21.9235C24.4468 21.9235 24.0836 21.7893 23.8064 21.5209C23.5292 21.2526 23.3906 20.8993 23.3906 20.461C23.3906 20.0227 23.5292 19.6693 23.8064 19.401C24.0836 19.1326 24.4468 18.9984 24.8961 18.9984C25.3454 18.9984 25.7086 19.1326 25.9858 19.401C26.263 19.6693 26.4016 20.0227 26.4016 20.461C26.4016 20.8993 26.263 21.2526 25.9858 21.5209C25.7086 21.7893 25.3454 21.9235 24.8961 21.9235ZM35.065 17.1066C34.8536 17.1066 34.6686 17.2393 34.6137 17.4303L33.5884 20.9977L32.2494 17.4C32.1841 17.2243 32.007 17.1066 31.8082 17.1066H30.172C29.8392 17.1066 29.6131 17.423 29.7401 17.7108L32.341 23.6006C32.1785 23.9048 31.9682 24.115 31.7101 24.2313C31.5383 24.3087 31.3116 24.3603 31.0297 24.3862C30.7729 24.4098 30.563 24.6015 30.563 24.843V26.08C30.563 26.3142 30.7605 26.5088 31.0107 26.5033C31.9174 26.4833 32.6715 26.2806 33.2729 25.8951C33.9707 25.4478 34.5108 24.7188 34.8932 23.708L37.1292 17.6874C37.2348 17.4032 37.0093 17.1066 36.6878 17.1066H35.065Z" fill="#1E1E1E"/>
<path fill-rule="evenodd" clip-rule="evenodd" d="M11.8915 12C10.8469 12 10 12.7926 10 13.7704V22.0523C10 23.03 10.8469 23.8226 11.8915 23.8226C12.9362 23.8226 13.7831 23.03 13.7831 22.0523V19.9239H16.4598C18.795 19.9239 20.6881 18.1521 20.6881 15.9664C20.6881 13.7807 18.795 12.0089 16.4598 12.0089H12.0825C12.0197 12.003 11.956 12 11.8915 12Z" fill="#FF7643"/>
<path fill-rule="evenodd" clip-rule="evenodd" d="M13.7923 19.9246V22.0522C13.7923 23.03 12.9454 23.8226 11.9007 23.8226C11.3761 23.8226 10.9013 23.6226 10.5586 23.2997C10.7926 21.3884 12.1225 19.9238 13.7281 19.9238C13.7495 19.9238 13.7709 19.9241 13.7923 19.9246Z" fill="#1E1E1E"/>
</svg>
