<svg width="80" height="39" viewBox="0 0 80 39" fill="none" xmlns="http://www.w3.org/2000/svg">
<rect width="80" height="39" rx="5" fill="white"/>
<path d="M36.3807 26.7402H32.4026L34.8889 11.4605H38.8674L36.3807 26.7402ZM29.056 11.4605L25.2635 21.97L24.8147 19.7069L24.8151 19.7077L23.4765 12.8363C23.4765 12.8363 23.3147 11.4605 21.5895 11.4605H15.3197L15.2461 11.7192C15.2461 11.7192 17.1634 12.1182 19.4073 13.4657L22.8634 26.7406H27.0083L33.3374 11.4605H29.056ZM60.3457 26.7402H63.9984L60.8137 11.4601H57.6158C56.1391 11.4601 55.7795 12.5988 55.7795 12.5988L49.8464 26.7402H53.9933L54.8226 24.4706H59.8798L60.3457 26.7402ZM55.9683 21.3353L58.0585 15.6172L59.2344 21.3353H55.9683ZM50.1575 15.1349L50.7252 11.8537C50.7252 11.8537 48.9734 11.1875 47.1472 11.1875C45.1731 11.1875 40.4851 12.0503 40.4851 16.2458C40.4851 20.1933 45.9873 20.2423 45.9873 22.3158C45.9873 24.3892 41.052 24.0177 39.4232 22.7102L38.8318 26.141C38.8318 26.141 40.6081 27.0038 43.322 27.0038C46.0368 27.0038 50.1321 25.5982 50.1321 21.7726C50.1321 17.7998 44.5805 17.4299 44.5805 15.7027C44.5809 13.975 48.4552 14.1969 50.1575 15.1349Z" fill="#2566AF"/>
<path d="M24.8151 19.7062L23.4765 12.8347C23.4765 12.8347 23.3147 11.459 21.5895 11.459H15.3197L15.2461 11.7177C15.2461 11.7177 18.2596 12.3422 21.1501 14.6822C23.9139 16.9187 24.8151 19.7062 24.8151 19.7062Z" fill="#E6A540"/>
</svg>
