<svg width="80" height="40" viewBox="0 0 80 40" fill="none" xmlns="http://www.w3.org/2000/svg">
<rect width="80" height="40" rx="5" fill="white"/>
<g clip-path="url(#clip0_2272:1021)">
<path d="M60.1734 35.5671V35.6494H60.2517C60.2664 35.6496 60.2809 35.646 60.2937 35.6389C60.2988 35.6353 60.303 35.6306 60.3057 35.6251C60.3085 35.6196 60.3098 35.6135 60.3095 35.6074C60.3098 35.6014 60.3084 35.5955 60.3057 35.5901C60.3029 35.5847 60.2988 35.5801 60.2937 35.5768C60.2811 35.5693 60.2665 35.5657 60.2517 35.5663H60.1734V35.5671ZM60.2526 35.5089C60.2862 35.5069 60.3194 35.5163 60.3467 35.5356C60.3576 35.5444 60.3663 35.5556 60.372 35.5682C60.3777 35.5809 60.3803 35.5946 60.3796 35.6084C60.3801 35.6203 60.378 35.6322 60.3735 35.6432C60.3689 35.6543 60.362 35.6642 60.3532 35.6724C60.3321 35.6903 60.3058 35.7011 60.278 35.7031L60.383 35.8203H60.3021L60.2055 35.7039H60.1743V35.8203H60.1066V35.5091H60.2536L60.2526 35.5089ZM60.2316 35.9276C60.267 35.928 60.3022 35.9209 60.3347 35.9071C60.366 35.8939 60.3945 35.8749 60.4187 35.8513C60.4429 35.8278 60.4622 35.7998 60.4756 35.7691C60.5032 35.7039 60.5032 35.6306 60.4756 35.5655C60.462 35.5348 60.4427 35.5069 60.4187 35.4832C60.3945 35.4596 60.366 35.4407 60.3347 35.4275C60.302 35.4143 60.2669 35.4078 60.2316 35.4081C60.1956 35.4078 60.16 35.4144 60.1266 35.4275C60.0945 35.4404 60.0654 35.4594 60.0407 35.4832C60.0035 35.5205 59.9784 35.5677 59.9685 35.6189C59.9585 35.6701 59.9641 35.723 59.9846 35.7711C59.9974 35.802 60.0165 35.83 60.0407 35.8534C60.0654 35.8772 60.0946 35.8961 60.1266 35.9091C60.1598 35.923 60.1955 35.93 60.2316 35.9297V35.9276ZM60.2316 35.3333C60.3239 35.3332 60.4125 35.3686 60.4783 35.432C60.5101 35.4624 60.5353 35.4987 60.5527 35.5387C60.5706 35.5798 60.5799 35.6241 60.5799 35.6688C60.5799 35.7135 60.5706 35.7578 60.5527 35.7989C60.5349 35.8387 60.5097 35.8749 60.4783 35.9056C60.4461 35.9359 60.4086 35.9603 60.3677 35.9776C60.3246 35.9955 60.2783 36.0046 60.2316 36.0043C60.1843 36.0047 60.1374 35.9956 60.0938 35.9776C60.0524 35.9607 60.0145 35.9362 59.9823 35.9056C59.9509 35.8738 59.9261 35.8364 59.909 35.7954C59.8911 35.7543 59.8818 35.71 59.8818 35.6653C59.8818 35.6206 59.8911 35.5763 59.909 35.5352C59.9264 35.4952 59.9516 35.4589 59.9834 35.4285C60.0152 35.3974 60.0531 35.3729 60.0949 35.3565C60.1385 35.3385 60.1853 35.3294 60.2326 35.3298L60.2316 35.3333ZM28.0764 34.1316C28.0764 33.5383 28.4733 33.0509 29.122 33.0509C29.7419 33.0509 30.1602 33.5173 30.1602 34.1316C30.1602 34.7459 29.7419 35.2124 29.122 35.2124C28.4733 35.2124 28.0764 34.7249 28.0764 34.1316ZM30.8669 34.1316V32.4432H30.1174V32.8545C29.8797 32.5505 29.5191 32.3599 29.0287 32.3599C28.0627 32.3599 27.3046 33.1019 27.3046 34.1324C27.3046 35.163 28.0623 35.905 29.0287 35.905C29.5189 35.905 29.8797 35.7142 30.1174 35.4104V35.8203H30.866V34.1316H30.8669ZM56.1912 34.1316C56.1912 33.5383 56.5881 33.0509 57.237 33.0509C57.8575 33.0509 58.2752 33.5173 58.2752 34.1316C58.2752 34.7459 57.8575 35.2124 57.237 35.2124C56.5883 35.2124 56.1912 34.7249 56.1912 34.1316ZM58.9825 34.1316V31.0879H58.2324V32.8545C57.9947 32.5505 57.6341 32.3599 57.1437 32.3599C56.1777 32.3599 55.4196 33.1019 55.4196 34.1324C55.4196 35.163 56.1773 35.905 57.1437 35.905C57.6341 35.905 57.9947 35.7142 58.2324 35.4104V35.8203H58.9825V34.1316ZM40.169 33.0161C40.652 33.0161 40.9622 33.3127 41.0414 33.8349H39.253C39.333 33.3475 39.6352 33.0161 40.1692 33.0161H40.169ZM40.1841 32.358C39.174 32.358 38.4674 33.0778 38.4674 34.1306C38.4674 35.2039 39.2024 35.9032 40.2343 35.9032C40.7535 35.9032 41.2289 35.7763 41.6472 35.4301L41.2799 34.8862C40.991 35.1124 40.623 35.2393 40.2772 35.2393C39.7942 35.2393 39.3544 35.0203 39.2463 34.4126H41.8056C41.8129 34.3212 41.8205 34.2291 41.8205 34.1304C41.8129 33.078 41.1485 32.3578 40.1837 32.3578L40.1841 32.358ZM49.2326 34.1304C49.2326 33.5371 49.6295 33.0497 50.2782 33.0497C50.8981 33.0497 51.3165 33.5161 51.3165 34.1304C51.3165 34.7447 50.8981 35.2111 50.2782 35.2111C49.6295 35.2111 49.2324 34.7237 49.2324 34.1304H49.2326ZM52.0229 34.1304V32.4432H51.2738V32.8545C51.0353 32.5505 50.6755 32.3599 50.1852 32.3599C49.2192 32.3599 48.4611 33.1019 48.4611 34.1324C48.4611 35.163 49.2188 35.905 50.1852 35.905C50.6755 35.905 51.0353 35.7142 51.2738 35.4104V35.8203H52.0231V34.1316L52.0229 34.1304ZM45.0001 34.1304C45.0001 35.1544 45.7279 35.9029 46.8388 35.9029C47.358 35.9029 47.7038 35.7898 48.0778 35.5005L47.7179 34.9072C47.4365 35.1052 47.141 35.2111 46.8149 35.2111C46.2166 35.2039 45.7766 34.7803 45.7766 34.1304C45.7766 33.4805 46.2166 33.0571 46.8149 33.0497C47.1402 33.0497 47.4356 33.1556 47.7179 33.3536L48.0778 32.7603C47.7032 32.4709 47.3573 32.3578 46.8388 32.3578C45.7279 32.3578 45.0001 33.1062 45.0001 34.1304ZM54.6622 32.3578C54.2298 32.3578 53.9482 32.5559 53.7535 32.8524V32.4432H53.0107V35.8184H53.7611V33.9264C53.7611 33.3678 54.0061 33.0575 54.4961 33.0575C54.6565 33.0552 54.8158 33.0841 54.9648 33.1424L55.1958 32.4506C55.0299 32.3866 54.8136 32.3584 54.6618 32.3584L54.6622 32.3578ZM34.5723 32.7116C34.2117 32.4788 33.7149 32.3584 33.1668 32.3584C32.2936 32.3584 31.7314 32.7683 31.7314 33.439C31.7314 33.9893 32.15 34.3288 32.9207 34.4348L33.2747 34.4841C33.6857 34.5407 33.8797 34.6466 33.8797 34.8372C33.8797 35.0982 33.6067 35.2471 33.0941 35.2471C32.575 35.2471 32.2004 35.0846 31.9477 34.894L31.5956 35.4663C32.0065 35.7629 32.5257 35.9044 33.0878 35.9044C34.0832 35.9044 34.6601 35.4454 34.6601 34.8027C34.6601 34.2094 34.2061 33.899 33.456 33.7931L33.1027 33.7429C32.7783 33.7018 32.5183 33.6378 32.5183 33.4116C32.5183 33.1648 32.7634 33.0163 33.1746 33.0163C33.6145 33.0163 34.0404 33.1788 34.2491 33.3057L34.5736 32.7124L34.5723 32.7116ZM44.243 32.3591C43.8106 32.3591 43.529 32.5571 43.3352 32.8537V32.4432H42.5924V35.8184H43.3419V33.9264C43.3419 33.3678 43.587 33.0575 44.0769 33.0575C44.2373 33.0552 44.3967 33.0841 44.5456 33.1424L44.7766 32.4506C44.6107 32.3866 44.3944 32.3584 44.2426 32.3584L44.243 32.3591ZM37.8473 32.4432H36.6217V31.4192H35.864V32.4432H35.1649V33.114H35.864V34.6538C35.864 35.4369 36.1744 35.9034 37.061 35.9034C37.3863 35.9034 37.761 35.8046 37.9987 35.6424L37.7822 35.0139C37.5585 35.1408 37.3134 35.2047 37.1186 35.2047C36.7439 35.2047 36.6217 34.9785 36.6217 34.6398V33.1146H37.8473V32.4432ZM26.6419 35.8192V33.701C26.6419 32.9032 26.1228 32.3665 25.2859 32.3593C24.846 32.3521 24.3921 32.4862 24.0744 32.9598C23.8367 32.5855 23.4621 32.3593 22.9354 32.3593C22.5672 32.3593 22.2075 32.4652 21.9259 32.8605V32.4432H21.1758V35.8184H21.9318V33.9469C21.9318 33.361 22.2636 33.0497 22.776 33.0497C23.2737 33.0497 23.5255 33.3674 23.5255 33.9395V35.818H24.2832V33.9465C24.2832 33.3606 24.629 33.0492 25.1265 33.0492C25.6383 33.0492 25.8825 33.367 25.8825 33.9391V35.8176L26.6419 35.8192Z" fill="#231F20"/>
<path d="M60.5978 24.5893V24.0957H60.4665L60.3147 24.4345L60.1637 24.0957H60.0321V24.5893H60.1253V24.2175L60.2673 24.5383H60.3639L60.5058 24.2166V24.5893H60.5982H60.5978ZM59.7651 24.5893V24.1802H59.9331V24.0969H59.5039V24.1802H59.6719V24.5893H59.7643H59.7651Z" fill="#F79410"/>
<path d="M45.6822 26.7065H34.3242V6.7168H45.6824L45.6822 26.7065Z" fill="#FF5F00"/>
<path d="M35.044 16.713C35.044 12.6581 36.9827 9.04598 40.0017 6.71816C37.7165 4.95353 34.89 3.9958 31.9799 4.00001C24.8111 4.00001 19 9.69174 19 16.713C19 23.7343 24.8111 29.426 31.9799 29.426C34.8901 29.4303 37.7166 28.4726 40.0019 26.7079C36.9831 24.3805 35.044 20.7681 35.044 16.713Z" fill="#EB001B"/>
<path d="M61.0069 16.713C61.0069 23.7343 55.1958 29.426 48.027 29.426C45.1164 29.4302 42.2896 28.4725 40.0039 26.7079C43.0237 24.3801 44.9624 20.7681 44.9624 16.713C44.9624 12.6579 43.0237 9.04598 40.0039 6.71816C42.2895 4.95358 45.1163 3.99588 48.0268 4.00001C55.1956 4.00001 61.0067 9.69174 61.0067 16.713" fill="#F79E1B"/>
</g>
<defs>
<clipPath id="clip0_2272:1021">
<rect width="42" height="32" fill="white" transform="translate(19 4)"/>
</clipPath>
</defs>
</svg>
