<svg width="80" height="39" viewBox="0 0 80 39" fill="none" xmlns="http://www.w3.org/2000/svg">
<rect width="80" height="39" rx="5" fill="#D70F18"/>
<g clip-path="url(#clip0_2272:1023)">
<path fill-rule="evenodd" clip-rule="evenodd" d="M29.2528 27.5885V20.3639C29.2546 19.894 29.161 19.4288 28.978 18.9981C28.7951 18.5673 28.5267 18.1804 28.1901 17.8621C27.8665 17.5292 27.4822 17.265 27.0592 17.0848C26.6361 16.9046 26.1826 16.8118 25.7245 16.8118C25.2665 16.8118 24.813 16.9046 24.3899 17.0848C23.9668 17.265 23.5825 17.5292 23.259 17.8621C22.9223 18.1803 22.6538 18.5672 22.4708 18.998C22.2878 19.4287 22.1943 19.894 22.1963 20.3639V27.5885H20.2754V20.5331C20.2557 19.7882 20.3835 19.0469 20.6512 18.3542C20.9188 17.6615 21.3206 17.0318 21.8323 16.5034C22.3428 15.9763 22.9528 15.5619 23.6248 15.2855C24.2969 15.0092 25.0168 14.8768 25.7405 14.8964C26.4609 14.8775 27.1774 15.0103 27.8459 15.2867C28.5144 15.5631 29.1207 15.9772 29.6274 16.5034C30.1391 17.0318 30.5409 17.6615 30.8086 18.3542C31.0762 19.0469 31.204 19.7882 31.1843 20.5331V27.5885H29.2528Z" fill="white"/>
<path fill-rule="evenodd" clip-rule="evenodd" d="M37.4531 27.5866V15.1675H39.2863V16.4552C39.6156 16.0159 40.0358 15.6572 40.5164 15.4048C41.0597 15.1013 41.6675 14.9401 42.2859 14.9355H42.4453H42.61V16.8808H42.4426C41.8325 16.8783 41.2382 17.0804 40.7502 17.4565C40.401 17.7206 40.096 18.0413 39.8469 18.4059C39.5739 18.9534 39.4457 19.565 39.475 20.1793V27.5866H37.4531Z" fill="white"/>
<path fill-rule="evenodd" clip-rule="evenodd" d="M62.0269 16.8549C61.4579 16.8485 60.8935 16.9603 60.3675 17.1834C59.8416 17.4066 59.365 17.7366 58.9663 18.1536C58.5464 18.5642 58.2121 19.0582 57.9838 19.6055C57.7554 20.1528 57.6378 20.7421 57.6379 21.3375C57.615 22.5355 58.0499 23.695 58.8494 24.5678C59.2265 25.0081 59.6885 25.3633 60.2062 25.6108C60.7239 25.8583 61.286 25.9927 61.8569 26.0056H62.1226C62.6821 26.0083 63.236 25.8911 63.7489 25.6613C64.2617 25.4316 64.7222 25.0945 65.1009 24.6715C65.5291 24.2325 65.8642 23.7072 66.085 23.1287C66.3058 22.5503 66.4077 21.9311 66.3841 21.3102C66.3739 20.1256 65.9134 18.9919 65.1009 18.1509C64.7152 17.7308 64.2487 17.3977 63.7309 17.1727C63.2132 16.9477 62.6555 16.8358 62.0934 16.844L62.0269 16.8549ZM62.0269 27.9291H61.8011C60.9875 27.9193 60.1843 27.7407 59.4397 27.4041C58.695 27.0675 58.0243 26.5797 57.4679 25.9701C56.8967 25.3773 56.446 24.6738 56.1418 23.9005C55.8376 23.1273 55.686 22.2996 55.6958 21.4657C55.686 20.5958 55.8502 19.7332 56.1784 18.9311C56.5065 18.1291 56.9915 17.4048 57.6034 16.8031C58.1642 16.2075 58.837 15.735 59.5809 15.4142C60.3249 15.0934 61.1245 14.9311 61.9313 14.9369H62.1545C63.7386 14.9773 65.2459 15.6461 66.3602 16.8031V11H68.3076V21.4412C68.3337 22.3065 68.178 23.1674 67.8511 23.9653C67.5242 24.7633 67.0339 25.4796 66.4133 26.0656C65.8415 26.6597 65.1598 27.1305 64.4084 27.4505C63.657 27.7705 62.851 27.9332 62.0376 27.9291H62.0269Z" fill="white"/>
<path fill-rule="evenodd" clip-rule="evenodd" d="M32.9492 27.5883H34.8834V15.1719H32.9492V27.5883Z" fill="white"/>
<path fill-rule="evenodd" clip-rule="evenodd" d="M33.9148 13.6194C33.6113 13.6208 33.3196 13.4988 33.1035 13.28C32.8874 13.0611 32.7645 12.7633 32.7617 12.4517C32.7617 12.1376 32.8832 11.8364 33.0994 11.6144C33.3157 11.3923 33.609 11.2676 33.9148 11.2676C34.2206 11.2676 34.5139 11.3923 34.7301 11.6144C34.9464 11.8364 35.0678 12.1376 35.0678 12.4517C35.0668 12.6061 35.0361 12.7588 34.9776 12.901C34.9191 13.0433 34.8339 13.1723 34.7268 13.2808C34.6197 13.3892 34.4929 13.4749 34.3536 13.533C34.2143 13.5911 34.0652 13.6204 33.9148 13.6194Z" fill="white"/>
<path fill-rule="evenodd" clip-rule="evenodd" d="M13.4422 27.8818C12.7196 27.9044 12.0002 27.7736 11.3291 27.4976C10.658 27.2216 10.0496 26.8062 9.54199 26.2776C9.03263 25.743 8.63342 25.1084 8.3682 24.4119C8.10298 23.7153 7.97721 22.9709 7.99839 22.2233V15.168H9.9352V22.428C9.93268 22.8972 10.0259 23.3618 10.209 23.7918C10.392 24.2218 10.6608 24.6076 10.9979 24.9243C11.6498 25.5914 12.5325 25.966 13.4528 25.966C14.3731 25.966 15.2559 25.5914 15.9077 24.9243C16.2449 24.6076 16.5136 24.2218 16.6967 23.7918C16.8797 23.3618 16.973 22.8972 16.9704 22.428V15.168H18.8913V22.2233C18.9118 22.9713 18.7852 23.7159 18.5191 24.4125C18.2529 25.1091 17.8527 25.7434 17.3424 26.2776C16.8359 26.8085 16.228 27.2263 15.5568 27.5047C14.8857 27.7831 14.1657 27.9162 13.4422 27.8955" fill="white"/>
<path fill-rule="evenodd" clip-rule="evenodd" d="M44.1631 21.7C44.0724 20.7081 44.3112 19.7139 44.8406 18.879C45.4101 17.9792 46.2742 17.3182 47.2769 17.0156C47.6004 16.9115 47.9333 16.8411 48.2705 16.8055C48.956 16.7278 49.6496 16.8214 50.2923 17.0783C51.1835 17.4369 51.9364 18.0845 52.4364 18.9226L44.1631 21.7ZM52.5931 23.6099C52.1202 24.5648 51.3152 25.2468 50.1568 25.6424C49.8124 25.7629 49.456 25.8434 49.0941 25.8825C48.355 25.9578 47.6094 25.8405 46.9262 25.5415C45.9634 25.1425 45.1781 24.3925 44.721 23.4352L54.8674 20.0467L54.5432 19.0563C54.0624 17.6076 53.0714 16.4563 51.5862 15.6378C50.1592 14.8347 48.4867 14.6238 46.9129 15.0485C46.0661 15.2695 45.2762 15.6767 44.5978 16.242C43.9193 16.8073 43.3685 17.5171 42.9834 18.3224C42.5644 19.1092 42.3155 19.9796 42.2536 20.8741C42.1917 21.7687 42.3183 22.6664 42.6248 23.5062C42.8996 24.3167 43.3322 25.0612 43.8963 25.6945C44.4604 26.3277 45.1442 26.8363 45.9059 27.1894C46.961 27.7346 48.1435 27.9661 49.3199 27.8578C49.7926 27.8078 50.258 27.7016 50.7068 27.5413C51.9396 27.1248 53.0163 26.326 53.7887 25.255C54.1482 24.7552 54.4337 24.2036 54.6362 23.618L52.5931 23.6099Z" fill="white"/>
<path fill-rule="evenodd" clip-rule="evenodd" d="M70.3294 25.9805H70.5951C70.679 25.9769 70.7612 26.005 70.8263 26.0596C70.8523 26.0837 70.873 26.1132 70.8872 26.1461C70.9014 26.179 70.9087 26.2146 70.9086 26.2506C70.9122 26.2903 70.906 26.3303 70.8907 26.367C70.8754 26.4037 70.8514 26.4359 70.8209 26.4607C70.7459 26.5224 70.6513 26.5534 70.5553 26.548H70.3241L70.3294 25.9805ZM70.7837 26.7608C70.8866 26.7421 70.9802 26.6883 71.0494 26.608C71.1332 26.5175 71.1798 26.3973 71.1796 26.2724C71.1826 26.2 71.1701 26.1278 71.143 26.0609C71.116 25.9939 71.0749 25.9339 71.0229 25.885C70.9046 25.7818 70.7528 25.7282 70.5978 25.7349H70.0664V27.3255H70.3321V26.5671L70.8847 27.3173H71.1955L70.7837 26.7608Z" fill="white"/>
<path fill-rule="evenodd" clip-rule="evenodd" d="M70.5462 27.709C70.3205 27.7057 70.1007 27.634 69.9145 27.5029C69.7283 27.3717 69.584 27.187 69.4997 26.9718C69.4155 26.7567 69.3951 26.5208 69.4411 26.2938C69.487 26.0668 69.5973 25.8588 69.7581 25.696C69.9189 25.5332 70.1229 25.4228 70.3446 25.3787C70.5663 25.3347 70.7957 25.3589 71.004 25.4483C71.2123 25.5378 71.3902 25.6885 71.5153 25.8815C71.6404 26.0745 71.7072 26.3012 71.7072 26.5331C71.7037 26.8467 71.5798 27.1461 71.3624 27.3664C71.1449 27.5866 70.8516 27.7097 70.5462 27.709ZM70.5462 25.0625C70.2638 25.0663 69.9888 25.1557 69.7558 25.3196C69.5227 25.4834 69.3421 25.7144 69.2366 25.9834C69.131 26.2524 69.1053 26.5475 69.1626 26.8315C69.22 27.1155 69.3578 27.3757 69.5588 27.5795C69.7598 27.7832 70.015 27.9214 70.2922 27.9766C70.5695 28.0318 70.8565 28.0016 71.117 27.8898C71.3776 27.7779 71.6002 27.5894 71.7567 27.348C71.9133 27.1066 71.9968 26.8231 71.9968 26.5331C71.994 26.1406 71.8397 25.7654 71.5677 25.4897C71.2958 25.214 70.9284 25.0603 70.5462 25.0625Z" fill="white"/>
</g>
<defs>
<clipPath id="clip0_2272:1023">
<rect width="64" height="17" fill="white" transform="translate(8 11)"/>
</clipPath>
</defs>
</svg>
