<svg width="80" height="39" viewBox="0 0 80 39" fill="none" xmlns="http://www.w3.org/2000/svg">
<rect width="80" height="39" rx="5" fill="#00A193"/>
<g clip-path="url(#clip0_2272:1033)">
<path d="M29.1511 15.9133L31.304 18.871L33.3965 15.9133H34.7226V22.1466H33.4188V17.9048H33.3774L31.4884 20.554H31.0082L29.1193 17.8955H29.0779V22.1435H27.8281V15.9102L29.1511 15.9133Z" fill="white"/>
<path d="M40.6766 15.9141L43.4973 22.1474H42.1299L41.6083 21.0379H38.4282L37.9194 22.1474H36.5742L39.3918 15.9141H40.6766ZM38.9052 19.9003H41.1313L40.0405 17.1888H39.9451L38.9052 19.9003Z" fill="white"/>
<path d="M50.5691 19.4529C50.3476 19.7885 50.0363 20.058 49.6691 20.2321L50.8649 22.1426H49.402L48.3971 20.4907H46.6353V22.1426H45.3633V15.9092H48.3939C48.7319 15.8929 49.0697 15.9442 49.3868 16.0599C49.7039 16.1756 49.9937 16.3534 50.2384 16.5824C50.619 16.9514 50.8601 17.4364 50.922 17.9576C50.9838 18.4787 50.8627 19.005 50.5787 19.4498L50.5691 19.4529ZM46.6353 19.3594H48.343C48.5176 19.3696 48.6924 19.3444 48.8565 19.2854C49.0207 19.2264 49.1706 19.1349 49.2971 19.0166C49.5025 18.7985 49.6161 18.5123 49.6151 18.2156C49.6239 17.9224 49.5181 17.637 49.3193 17.4177C49.1955 17.2883 49.0433 17.1882 48.8741 17.125C48.705 17.0618 48.5233 17.0372 48.343 17.053H46.6258L46.6353 19.3594Z" fill="white"/>
<path d="M54.0885 15.9133V18.2601H55.2556L56.8965 15.9133H58.3816L56.3463 18.7682L58.5183 22.1435H57.0555L55.2746 19.3697H54.0885V22.1435H52.8164V15.9102L54.0885 15.9133Z" fill="white"/>
<path d="M60.3164 15.9141H65.2996V17.0548H61.6012V18.3233H64.9085V19.4546H61.6012V21.013H65.4491V22.1443H60.3164V15.9141Z" fill="white"/>
<path d="M67.1797 15.9141H72.9993V17.033H70.7096V22.1443H69.4694V17.033H67.1797V15.9141Z" fill="white"/>
<path d="M21.7811 11H8.59005C8.16835 11 7.76391 11.1642 7.46572 11.4564C7.16752 11.7487 7 12.145 7 12.5583V25.4864C7 25.8997 7.16752 26.296 7.46572 26.5883C7.76391 26.8805 8.16835 27.0447 8.59005 27.0447H21.7811C22.2029 27.0447 22.6073 26.8805 22.9055 26.5883C23.2037 26.296 23.3712 25.8997 23.3712 25.4864V12.5583C23.3712 12.145 23.2037 11.7487 22.9055 11.4564C22.6073 11.1642 22.2029 11 21.7811 11V11ZM10.2533 22.7L13.6973 17.6011H11.1755L12.5843 15.3634H17.1414L15.2874 18.1684L12.2885 22.7H10.2533ZM19.2053 20.4529L17.8124 22.7H13.2394L15.0902 19.895L18.0922 15.3634H20.1243L16.6834 20.4529H19.2053Z" fill="white"/>
</g>
<defs>
<clipPath id="clip0_2272:1033">
<rect width="66" height="16.0541" fill="white" transform="translate(7 11)"/>
</clipPath>
</defs>
</svg>
