<svg width="80" height="40" viewBox="0 0 80 40" fill="none" xmlns="http://www.w3.org/2000/svg">
<rect width="80" height="40" rx="5" fill="#FFB500"/>
<path d="M43.427 14.4648H40.5014L36.5977 24.0791H39.1023L41.9642 16.6532L44.8261 24.0791H47.3285L43.427 14.4648Z" fill="white"/>
<path d="M40.9056 31.1432L40.8852 31.1409H40.8829H40.8806H40.8783H40.8761C39.4042 30.9929 37.9915 30.5466 36.713 29.8498C34.2492 28.5017 32.2973 26.2154 31.4465 23.3097C30.5934 20.4018 31.0006 17.4233 32.3451 14.9594C33.0367 13.691 33.9785 12.5569 35.1251 11.6392L35.1478 11.621L35.1501 11.6187C36.8472 10.2274 38.9242 9.30059 41.1741 9.00911C41.1855 9.00683 41.2605 9 41.2719 9L42.216 11.325C42.2024 11.325 42.125 11.3318 42.1114 11.3341C40.1049 11.4593 38.244 12.2131 36.7448 13.42C36.7221 13.4382 36.697 13.4587 36.6743 13.4769C36.6379 13.5065 36.5992 13.5384 36.5628 13.5703L36.5605 13.5726L36.5583 13.5748L36.556 13.5771L36.5537 13.5794L36.5514 13.5817C36.5423 13.5908 36.531 13.5976 36.5219 13.6044C35.671 14.3058 34.9726 15.1597 34.4517 16.1116C33.4007 18.0358 33.0845 20.3631 33.751 22.6357C34.4176 24.9083 35.9395 26.6959 37.8618 27.7457C38.881 28.3036 40.0116 28.6543 41.1877 28.7613C43.747 28.9731 46.1607 28.1487 48.008 26.6321C48.0967 26.5593 48.1854 26.4841 48.2741 26.4067L49.2182 28.734C46.9251 30.4919 43.9973 31.4233 40.9056 31.1478V31.1432Z" fill="white"/>
</svg>
